# xmcd CD database file
#
# Track frame offsets:
#	150
#	24796
#	42216
#	69105
#	91201
#	108254
#	126872
#	140379
#	159463
#	173715
#	190884
#	204218
#	216400
#	232117
#	257820
#	280888
#
# Disc length: 4057 seconds
#
# Revision: 0
# Processed by: cddbd v1.5.1PL0 Copyright (c) Steve Scherf et al.
# Submitted via: CDex 1.51
#
DISCID=d80fd710
DTITLE=Celia Cruz - Salsa Masters best of vol.2
DYEAR=1900
DGENRE=Salsa
TTITLE0=Bamboleo
TTITLE1=A santa barbara
TTITLE2=me voy contigo
TTITLE3=ay mi cuba
TTITLE4=cao caomani picao
TTITLE5=a papa
TTITLE6=a medias de la noche
TTITLE7=reina rumba
TTITLE8=yo regresaré
TTITLE9=mi querida borinquen
TTITLE10=falluco
TTITLE11=en el batey
TTITLE12=vamos a guarachar
TTITLE13=se que ta
TTITLE14=feliz encuentro
TTITLE15=mi caso
EXTD=
EXTT0=
EXTT1=
EXTT2=
EXTT3=
EXTT4=
EXTT5=
EXTT6=
EXTT7=
EXTT8=
EXTT9=
EXTT10=
EXTT11=
EXTT12=
EXTT13=
EXTT14=
EXTT15=
PLAYORDER=
